<?xml version="1.0" encoding="UTF-8"?>
<!DOCTYPE svg PUBLIC "-//W3C//DTD SVG 1.1//EN" "http://www.w3.org/Graphics/SVG/1.1/DTD/svg11.dtd">
<svg xmlns="http://www.w3.org/2000/svg" version="1.1" width="512px" height="512px" style="shape-rendering:geometricPrecision; text-rendering:geometricPrecision; image-rendering:optimizeQuality; fill-rule:evenodd; clip-rule:evenodd" xmlns:xlink="http://www.w3.org/1999/xlink">
<g><path style="opacity:0.986" fill="#000000" d="M 212.5,18.5 C 241.169,18.3334 269.835,18.5 298.5,19C 308.229,21.396 313.729,27.5627 315,37.5C 315.5,83.8321 315.667,130.165 315.5,176.5C 343.502,176.333 371.502,176.5 399.5,177C 410.677,181.85 415.177,190.35 413,202.5C 411.92,204.996 410.586,207.33 409,209.5C 361.833,256.667 314.667,303.833 267.5,351C 259.5,355.667 251.5,355.667 243.5,351C 196.333,303.833 149.167,256.667 102,209.5C 94.9455,198.123 96.4455,187.956 106.5,179C 108.087,178.138 109.754,177.471 111.5,177C 139.498,176.5 167.498,176.333 195.5,176.5C 195.333,130.165 195.5,83.8321 196,37.5C 197.46,27.5468 202.96,21.2135 212.5,18.5 Z"/></g>
<g><path style="opacity:0.987" fill="#000000" d="M 511.5,355.5 C 511.5,393.833 511.5,432.167 511.5,470.5C 506.92,482.578 498.253,489.744 485.5,492C 332.167,492.667 178.833,492.667 25.5,492C 12.7466,489.744 4.07996,482.578 -0.5,470.5C -0.5,432.167 -0.5,393.833 -0.5,355.5C 4.17362,343.002 13.1736,335.835 26.5,334C 75.1667,333.333 123.833,333.333 172.5,334C 188.529,350.362 204.862,366.362 221.5,382C 244.167,396 266.833,396 289.5,382C 306.138,366.362 322.471,350.362 338.5,334C 387.167,333.333 435.833,333.333 484.5,334C 497.826,335.835 506.826,343.002 511.5,355.5 Z M 369.5,413.5 C 385.514,413.677 393.014,421.677 392,437.5C 386.462,450.846 376.962,454.679 363.5,449C 352.404,439.258 351.737,428.925 361.5,418C 364.099,416.205 366.766,414.705 369.5,413.5 Z M 448.5,413.5 C 466.286,414.115 473.453,423.115 470,440.5C 463.352,451.382 454.185,454.216 442.5,449C 430.941,438.724 430.608,428.058 441.5,417C 443.925,415.787 446.259,414.621 448.5,413.5 Z"/></g>
</svg>
